<?xml version="1.0" standalone="no"?>
<!DOCTYPE svg PUBLIC "-//W3C//DTD SVG 20010904//EN"
 "http://www.w3.org/TR/2001/REC-SVG-20010904/DTD/svg10.dtd">
<svg version="1.0" xmlns="http://www.w3.org/2000/svg"
 width="100.000000pt" height="100.000000pt" viewBox="0 0 100.000000 100.000000"
 preserveAspectRatio="xMidYMid meet">
<metadata>
Created by potrace 1.14, written by Peter Selinger 2001-2017
</metadata>
<g transform="translate(0.000000,100.000000) scale(0.100000,-0.100000)"
fill="#000000" stroke="none">
<path d="M165 928 c-3 -7 -4 -182 -3 -388 l3 -375 385 0 385 0 0 75 0 75 -307
3 -308 2 -2 308 -3 307 -73 3 c-52 2 -74 -1 -77 -10z"/>
<path d="M64 826 c-3 -7 -4 -42 -2 -77 3 -62 4 -64 31 -67 l27 -3 0 80 c0 80
0 81 -25 81 -14 0 -28 -6 -31 -14z"/>
<path d="M360 760 l0 -80 160 0 160 0 0 -160 0 -160 80 0 80 0 -2 238 -3 237
-237 3 -238 2 0 -80z"/>
<path d="M682 93 c3 -28 4 -28 78 -28 74 0 75 0 78 28 l3 27 -81 0 -81 0 3
-27z"/>
</g>
</svg>
